HIERARCHY
ROOT SimulationBone
{
	OFFSET 0.000000 0.000000 0.000000
	CHANNELS 6 Xposition Yposition Zposition Zrotation Yrotation Xrotation 
	JOINT Hips
	{
		OFFSET 0.000000 0.000000 0.000000
		CHANNELS 6 Xposition Yposition Zposition Zrotation Yrotation Xrotation 
		JOINT RightUpLeg
		{
			OFFSET 0.103456 1.857840 10.548501
			CHANNELS 3 Zrotation Yrotation Xrotation
			JOINT RightLeg
			{
				OFFSET 43.499992 -0.000038 -0.000006
				CHANNELS 3 Zrotation Yrotation Xrotation
				JOINT RightFoot
				{
					OFFSET 42.372196 0.000031 0.000002
					CHANNELS 3 Zrotation Yrotation Xrotation
					JOINT RightToe
					{
						OFFSET 17.299974 -0.000010 -0.000017
						CHANNELS 3 Zrotation Yrotation Xrotation
						End Site
						{
							OFFSET 0.000000 0.000000 0.000000
						}
					}
				}
			}
		}
		JOINT LeftUpLeg
		{
			OFFSET 0.103462 1.857831 -10.548510
			CHANNELS 3 Zrotation Yrotation Xrotation
			JOINT LeftLeg
			{
				OFFSET 43.500046 -0.000015 0.000008
				CHANNELS 3 Zrotation Yrotation Xrotation
				JOINT LeftFoot
				{
					OFFSET 42.372265 -0.000015 0.000004
					CHANNELS 3 Zrotation Yrotation Xrotation
					JOINT LeftToe
					{
						OFFSET 17.299995 -0.000004 0.000013
						CHANNELS 3 Zrotation Yrotation Xrotation
						End Site
						{
							OFFSET 0.000000 0.000000 0.000000
						}
					}
				}
			}
		}
		JOINT Spine
		{
			OFFSET 6.901966 -2.603716 -0.000002
			CHANNELS 3 Zrotation Yrotation Xrotation
			JOINT Spine1
			{
				OFFSET 12.588102 -0.000001 0.000005
				CHANNELS 3 Zrotation Yrotation Xrotation
				JOINT Spine2
				{
					OFFSET 12.343201 -0.000023 -0.000011
					CHANNELS 3 Zrotation Yrotation Xrotation
					JOINT Neck
					{
						OFFSET 25.832901 0.000011 0.000007
						CHANNELS 3 Zrotation Yrotation Xrotation
						JOINT Head
						{
							OFFSET 11.766600 -0.000002 0.000002
							CHANNELS 3 Zrotation Yrotation Xrotation
							End Site
							{
								OFFSET 0.000000 0.000000 0.000000
							}
						}
					}
					JOINT RightShoulder
					{
						OFFSET 19.745907 -1.480350 6.000119
						CHANNELS 3 Zrotation Yrotation Xrotation
						JOINT RightArm
						{
							OFFSET 11.284122 -0.000013 -0.000023
							CHANNELS 3 Zrotation Yrotation Xrotation
							JOINT RightForeArm
							{
								OFFSET 33.000057 0.000005 0.000025
								CHANNELS 3 Zrotation Yrotation Xrotation
								JOINT RightHand
								{
									OFFSET 25.199997 0.000020 0.000019
									CHANNELS 3 Zrotation Yrotation Xrotation
									End Site
									{
										OFFSET 0.000000 0.000000 0.000000
									}
								}
							}
						}
					}
					JOINT LeftShoulder
					{
						OFFSET 19.746096 -1.480352 -6.000062
						CHANNELS 3 Zrotation Yrotation Xrotation
						JOINT LeftArm
						{
							OFFSET 11.284150 0.000007 -0.000012
							CHANNELS 3 Zrotation Yrotation Xrotation
							JOINT LeftForeArm
							{
								OFFSET 33.000092 0.000019 0.000012
								CHANNELS 3 Zrotation Yrotation Xrotation
								JOINT LeftHand
								{
									OFFSET 25.199797 0.000118 0.000427
									CHANNELS 3 Zrotation Yrotation Xrotation
									End Site
									{
										OFFSET 0.000000 0.000000 0.000000
									}
								}
							}
						}
					}
				}
			}
		}
	}
}
MOTION
Frames: 7
Frame Time: 0.033333
358.683328 0.000000 163.272495 0.000000 219.684866 0.000000 -6.970902 89.921288 0.359580 79.534353 -2.291078 179.421135 156.359641 -1.645490 168.043882 -34.546106 4.167610 1.029796 92.552963 -1.828889 -7.777168 21.454560 0.003116 0.000018 147.816973 9.767506 -175.238666 -74.721723 -0.792359 -0.423177 79.215810 1.863640 5.944636 21.454550 -0.003092 0.000000 7.166783 -1.185163 -0.624829 4.334912 -2.346261 -1.293449 4.016610 -2.354167 -1.279257 3.047206 -4.009834 -1.061094 -30.386491 9.261048 -6.588680 -179.386053 -80.528443 -2.124954 12.552433 52.346536 27.297718 -44.567220 -15.707492 1.659275 5.237026 -0.471191 6.578909 -161.487993 82.026221 20.304004 17.069911 -65.567439 -39.719258 -53.113286 20.699780 -2.237374 2.860835 10.080077 -14.298540 
356.862360 0.000000 164.724893 0.000000 218.658351 0.000000 -7.182379 90.279739 -0.052580 79.338989 -2.506767 178.624323 158.590149 -1.244008 167.280376 -33.024678 3.954681 0.391358 92.572757 -1.411094 -7.965431 21.454557 0.003109 0.000017 143.440256 8.376007 -175.197972 -74.488431 0.393941 -2.178082 79.505157 3.291611 6.884538 21.454551 -0.003091 0.000000 7.103394 -1.230556 -0.778333 4.211881 -2.432214 -1.600847 3.893614 -2.441966 -1.586122 3.234380 -2.581757 -0.512738 -30.140477 7.940705 -5.029066 174.291975 -81.244649 4.271026 11.233085 52.952766 23.873673 -45.259760 -16.258101 1.716018 5.211185 -2.088971 5.953337 -161.267077 82.374472 20.523928 16.141439 -64.965481 -35.618385 -59.748924 19.920180 -2.426134 2.176190 10.395112 -18.340713 
354.927190 0.000000 166.171288 0.000000 217.677258 0.000000 -7.377032 90.562180 -0.476142 79.156821 -2.728815 178.076893 160.759266 -0.621003 167.126601 -31.611003 3.688902 -0.426903 92.429207 -0.885272 -8.190139 21.454558 0.003106 0.000016 139.734606 7.098403 -175.012601 -72.005248 1.929242 -2.661225 79.329109 3.695291 7.257377 21.454560 -0.003096 0.000000 7.066623 -1.226930 -0.961400 4.142094 -2.418975 -1.966078 3.823887 -2.430943 -1.951435 3.116044 -1.520250 0.199966 -29.635931 6.629876 -3.373387 167.315866 -81.292160 11.337948 10.543838 53.313807 19.866983 -47.342107 -16.514340 1.796419 5.033004 -2.880964 5.508043 -160.699926 82.779980 21.093035 15.804518 -64.378276 -32.024489 -65.506883 18.238418 -2.534572 0.270315 10.851560 -18.876599 
352.884273 0.000000 167.613449 0.000000 216.741654 0.000000 -7.544166 90.642303 -0.875563 78.996329 -3.066711 177.748806 162.832584 0.248195 166.927802 -30.457098 3.670542 -1.147690 92.508506 -0.423026 -8.470743 21.454558 0.003105 0.000018 136.722779 5.918394 -174.625179 -67.768270 2.575611 -2.775332 79.327586 3.851372 7.645332 21.454553 -0.003091 -0.000000 7.058830 -1.233888 -1.165158 4.130880 -2.425802 -2.373699 3.812768 -2.440218 -2.359009 2.441742 -0.573394 0.988871 -28.677779 5.583533 -1.783567 161.204130 -81.498616 17.516124 10.176299 53.890715 16.940980 -50.033489 -17.001299 1.914740 3.516485 -2.189310 5.272238 -160.072942 82.860153 21.726113 15.541406 -63.424194 -28.743560 -70.282100 15.956932 -2.570110 -1.133996 11.086993 -18.831064 
350.740063 0.000000 169.053145 0.000000 215.851377 0.000000 -7.644509 90.579933 -1.169017 78.728683 -3.317034 177.771941 164.727661 1.066303 166.827384 -29.550646 3.779656 -1.728884 92.741702 -0.052876 -8.796895 21.454560 0.003103 0.000016 134.358441 5.067398 -174.638511 -61.723477 3.071747 -2.389210 78.830266 3.684862 7.952032 21.454545 -0.003091 0.000003 7.052224 -1.209638 -1.377167 4.121402 -2.369943 -2.796683 3.803437 -2.386921 -2.782331 1.403946 0.567833 1.617704 -27.769698 4.257896 -0.206299 154.597876 -81.669494 24.188017 9.962788 54.457508 15.241755 -52.995332 -17.367320 2.038762 1.749138 -2.778457 5.200664 -158.686045 83.050647 23.125965 16.053921 -62.699231 -26.622018 -74.058273 13.874840 -2.582566 -1.069386 10.618550 -19.726087 
348.501014 0.000000 170.492146 0.000000 215.006060 0.000000 -7.734172 90.434601 -1.399563 78.480173 -3.366034 178.025434 166.645004 1.576704 166.683786 -28.755646 3.781224 -2.082682 93.072802 0.188547 -8.990336 21.454562 0.003100 0.000018 133.356957 4.091904 -175.321339 -53.475860 3.602828 -0.910935 78.171146 2.550678 7.515552 21.454557 -0.003096 -0.000002 7.075031 -1.140468 -1.522844 4.167986 -2.225874 -3.085948 3.850129 -2.244602 -3.072456 0.688394 1.796081 2.035136 -27.468779 2.766429 1.218088 146.925033 -81.723671 31.935055 9.818578 55.123021 13.491013 -56.396411 -17.144951 2.143848 0.637180 -2.540020 5.863865 -159.219960 83.099763 22.584980 17.915262 -61.840184 -25.867014 -76.771415 12.244582 -2.583893 -1.822942 10.465948 -20.410627 
346.173579 0.000000 171.932219 0.000000 214.205157 0.000000 -7.778504 90.079247 -1.542050 78.487535 -3.413930 178.744086 168.759850 2.063597 166.994915 -28.222610 3.699847 -2.395719 93.700346 0.428697 -9.157745 21.454558 0.003113 0.000018 133.570278 3.410509 -175.894815 -43.957871 3.255971 1.099680 77.754464 0.646086 5.639990 21.454557 -0.003093 -0.000003 7.144879 -1.037996 -1.702282 4.307816 -2.012490 -3.442175 3.990124 -2.033367 -3.429982 0.465787 1.718823 2.579611 -27.536510 2.564379 1.865353 140.030011 -81.389354 38.917066 10.180924 55.842373 12.279725 -59.623508 -16.831866 2.241683 -0.561039 -1.609845 6.434546 -160.532969 83.339263 21.254931 20.479996 -61.017515 -26.336748 -78.341928 11.204213 -2.578478 -2.242315 9.728494 -20.341379 
